<?xml version="1.0" standalone="no"?><!DOCTYPE svg PUBLIC "-//W3C//DTD SVG 1.1//EN" "http://www.w3.org/Graphics/SVG/1.1/DTD/svg11.dtd"><svg t="1622811240074" class="icon" viewBox="0 0 1024 1024" version="1.1" xmlns="http://www.w3.org/2000/svg" p-id="5708" xmlns:xlink="http://www.w3.org/1999/xlink" width="200" height="200"><defs><style type="text/css"></style></defs><path d="M217.6 123.392H783.872v155.648l-66.048 62.976V189.44H250.88v43.008l31.744-13.824 30.208-13.312 26.112 60.416-30.208 13.312L250.88 304.128v34.816l31.744-13.824L312.32 312.32l26.112 60.416-30.208 13.312L250.88 410.624v38.4l31.744-13.824 30.208-13.312 26.112 60.416-30.208 13.312-57.856 25.6v34.816l31.744-13.824 30.208-13.312 26.112 60.416-30.208 13.312-57.856 24.576v43.52l31.744-13.824 30.208-13.312 26.112 60.416-30.208 13.312L250.88 742.4v75.264h467.968v-144.896l66.048-62.976v273.408H184.832V798.72H115.712L102.4 735.744l82.432-35.84v-15.872H115.712L102.4 620.544l82.432-35.84v-7.168H115.712L102.4 514.048l82.432-35.84v-11.264H115.712L102.4 403.968l82.432-35.84v-7.168H115.712L102.4 297.472l82.432-35.84V123.904h32.768v-0.512z m178.176 364.544v36.864h89.088v-36.864H395.776z m0-80.384v36.864h163.84v-36.864h-163.84z m0-80.384v36.864h237.056v-36.864H395.776z m0-77.312V286.72h237.056v-36.864H395.776z m93.184 478.208l52.736-2.56 52.736-2.56-47.616-49.664-47.616-49.664-5.12 52.224-5.12 52.224z m357.376-437.76l-307.712 294.4 94.72 99.328 307.712-294.4-94.72-99.328z" fill="#CC3333" p-id="5709"></path></svg>